<svg width="24" height="24" viewBox="0 0 24 24" fill="none" xmlns="http://www.w3.org/2000/svg">
<path fill-rule="evenodd" clip-rule="evenodd" d="M16.1573 14.4851L21.633 19.9629C21.9436 20.2585 22.0695 20.6991 21.9621 21.1141C21.8547 21.5291 21.5308 21.8533 21.1159 21.9611C20.7009 22.0688 20.2602 21.9432 19.9644 21.6329L14.4937 16.1594L14.488 16.1636C13.1484 17.1554 11.524 17.6873 9.85728 17.6801C5.52385 17.6551 2.01886 14.145 2.00014 9.81151C1.98791 7.73792 2.80549 5.74557 4.27076 4.27829C5.73602 2.81102 7.72725 1.9907 9.80085 2.00008C14.1339 2.02511 17.6385 5.53487 17.6573 9.86794C17.6646 11.5279 17.1388 13.1464 16.1573 14.4851ZM3.56583 9.81721C3.58105 13.2838 6.385 16.0916 9.85155 16.1115C11.5102 16.1184 13.1028 15.4619 14.2748 14.2882C15.4468 13.1144 16.1009 11.5209 16.0915 9.86221C16.0763 6.39564 13.2724 3.58787 9.80583 3.56792C8.14717 3.56103 6.55458 4.21753 5.38259 5.39126C4.2106 6.565 3.55648 8.15856 3.56583 9.81721Z" fill="#CC0000"/>
</svg>
