<svg width="20" height="20" viewBox="0 0 20 20" fill="none" xmlns="http://www.w3.org/2000/svg">
<path fill-rule="evenodd" clip-rule="evenodd" d="M14.1573 12.4851L19.633 17.9629C19.9436 18.2585 20.0695 18.6991 19.9621 19.1141C19.8547 19.5291 19.5308 19.8533 19.1159 19.9611C18.7009 20.0688 18.2602 19.9432 17.9644 19.6329L12.4937 14.1594L12.488 14.1636C11.1484 15.1554 9.52401 15.6873 7.85728 15.6801C3.52385 15.6551 0.0188634 12.145 0.000135215 7.81151C-0.0120928 5.73792 0.805493 3.74557 2.27076 2.27829C3.73602 0.811018 5.72725 -0.00930225 7.80085 7.95969e-05C12.1339 0.0251063 15.6385 3.53487 15.6573 7.86794C15.6646 9.5279 15.1388 11.1464 14.1573 12.4851ZM1.56583 7.81721C1.58105 11.2838 4.385 14.0916 7.85155 14.1115C9.51021 14.1184 11.1028 13.4619 12.2748 12.2882C13.4468 11.1144 14.1009 9.52086 14.0915 7.86221C14.0763 4.39564 11.2724 1.58787 7.80583 1.56792C6.14717 1.56103 4.55458 2.21753 3.38259 3.39126C2.2106 4.565 1.55648 6.15856 1.56583 7.81721Z" fill="#CC0000"/>
</svg>
